<svg xmlns="http://www.w3.org/2000/svg" viewBox="0 0 64 64" width="64" height="64">
  <!-- Dark background -->
  <rect width="64" height="64" rx="12" fill="#0a0e1a"/>

  <!-- Glow effect behind droplet -->
  <ellipse cx="32" cy="30" rx="16" ry="18" fill="#00e5cc" opacity="0.12"/>

  <!-- Water droplet shape -->
  <path d="M32 10 C32 10 18 26 18 35 A14 14 0 0 0 46 35 C46 26 32 10 32 10Z"
        fill="#00e5cc" opacity="0.95"/>

  <!-- Checkmark inside droplet -->
  <polyline points="25,35 30,41 40,28"
            fill="none" stroke="#0a0e1a" stroke-width="3.5"
            stroke-linecap="round" stroke-linejoin="round"/>

  <!-- Wrench below -->
  <g transform="translate(21, 52) scale(0.34)" fill="#00e5cc" opacity="0.9">
    <path d="M54.1 9.9C50.5 6.3 45.5 4.7 40.6 5.4L48.8 13.6L45.3 17.1L37.1 8.9C36.4 13.8 38 18.8 41.6 22.4C45.1 25.9 50 27.5 54.8 26.9L68.2 40.3C69.8 41.9 69.8 44.5 68.2 46.1C66.6 47.7 64 47.7 62.4 46.1L49 32.7C43.3 33.4 37.4 31.5 33.3 27.1C29 22.5 27.5 16.1 29.2 10.1C29.6 8.6 31.5 8.1 32.6 9.2L42 18.6L45.5 15.1L36.1 5.7C37.2 4.6 39.1 5.1 39.5 6.6"/>
  </g>
</svg>
